<!--?xml version="1.0" standalone="no"?-->
              <svg id="sw-js-blob-svg" viewBox="0 0 100 100" xmlns="http://www.w3.org/2000/svg" version="1.1">
                    <defs> 
                        <linearGradient id="sw-gradient" x1="0" x2="1" y1="1" y2="0">
                            <stop id="stop1" stop-color="rgba(255, 0, 140, 1)" offset="0%"></stop>
                            <stop id="stop2" stop-color="rgba(255, 0, 140, 0.11)" offset="100%"></stop>
                        </linearGradient>
                    </defs>
                <path fill="rgba(255, 0, 140, 1)" d="M17.6,-26.4C23.7,-23.6,30.1,-20.1,34,-14.6C38,-9.1,39.5,-1.6,39.3,6.3C39.2,14.2,37.4,22.6,32.8,28.9C28.1,35.3,20.5,39.7,12.3,42.2C4.1,44.7,-4.7,45.3,-11.6,42.1C-18.5,38.9,-23.6,31.9,-27.1,25C-30.6,18.2,-32.5,11.6,-34.9,4.2C-37.3,-3.2,-40.1,-11.4,-38.1,-18C-36,-24.7,-29.2,-29.7,-22.1,-32.1C-14.9,-34.4,-7.5,-33.9,-0.8,-32.6C5.8,-31.3,11.6,-29.2,17.6,-26.4Z" width="100%" height="100%" transform="translate(50 50)" stroke-width="0" style="transition: all 0.3s ease 0s;" stroke="url(#sw-gradient)"></path>
              </svg>