<!--?xml version="1.0" standalone="no"?-->
              <svg id="sw-js-blob-svg" viewBox="0 0 100 100" xmlns="http://www.w3.org/2000/svg" version="1.1">
                    <defs> 
                        <linearGradient id="sw-gradient" x1="0" x2="1" y1="1" y2="0">
                            <stop id="stop1" stop-color="rgba(255, 0, 140, 1)" offset="0%"></stop>
                            <stop id="stop2" stop-color="rgba(255, 0, 140, 0.11)" offset="100%"></stop>
                        </linearGradient>
                    </defs>
                <path fill="rgba(255, 0, 140, 1)" d="M16.8,-26.7C21.3,-23.3,24,-17.8,26.8,-12.1C29.6,-6.5,32.5,-0.7,31.7,4.6C31,9.8,26.6,14.5,22.2,18.8C17.9,23.1,13.5,27,8.3,28.8C3.1,30.6,-2.8,30.3,-8.5,28.7C-14.2,27.2,-19.6,24.4,-26.2,20.6C-32.9,16.7,-40.8,11.9,-43.1,5.3C-45.3,-1.2,-41.9,-9.4,-36.5,-14.8C-31.2,-20.2,-23.8,-22.8,-17.3,-25.4C-10.9,-27.9,-5.4,-30.4,0.4,-31C6.2,-31.5,12.3,-30.2,16.8,-26.7Z" width="100%" height="100%" transform="translate(50 50)" stroke-width="0" style="transition: all 0.3s ease 0s;" stroke="url(#sw-gradient)"></path>
              </svg>