<svg id="visual" viewBox="0 0 900 600" width="900" height="600" xmlns="http://www.w3.org/2000/svg" xmlns:xlink="http://www.w3.org/1999/xlink" version="1.1"><rect x="0" y="0" width="900" height="600" fill="#FFFFFF"></rect><defs><linearGradient id="grad1_0" x1="33.3%" y1="100%" x2="100%" y2="0%"><stop offset="20%" stop-color="#ff008c" stop-opacity="1"></stop><stop offset="80%" stop-color="#ff008c" stop-opacity="1"></stop></linearGradient></defs><defs><linearGradient id="grad1_1" x1="33.3%" y1="100%" x2="100%" y2="0%"><stop offset="20%" stop-color="#ff008c" stop-opacity="1"></stop><stop offset="80%" stop-color="#ff6ba7" stop-opacity="1"></stop></linearGradient></defs><defs><linearGradient id="grad1_2" x1="33.3%" y1="100%" x2="100%" y2="0%"><stop offset="20%" stop-color="#ffa1c4" stop-opacity="1"></stop><stop offset="80%" stop-color="#ff6ba7" stop-opacity="1"></stop></linearGradient></defs><defs><linearGradient id="grad1_3" x1="33.3%" y1="100%" x2="100%" y2="0%"><stop offset="20%" stop-color="#ffa1c4" stop-opacity="1"></stop><stop offset="80%" stop-color="#ffd1e1" stop-opacity="1"></stop></linearGradient></defs><defs><linearGradient id="grad1_4" x1="33.3%" y1="100%" x2="100%" y2="0%"><stop offset="20%" stop-color="#ffffff" stop-opacity="1"></stop><stop offset="80%" stop-color="#ffd1e1" stop-opacity="1"></stop></linearGradient></defs><defs><linearGradient id="grad2_0" x1="0%" y1="100%" x2="66.7%" y2="0%"><stop offset="20%" stop-color="#ff008c" stop-opacity="1"></stop><stop offset="80%" stop-color="#ff008c" stop-opacity="1"></stop></linearGradient></defs><defs><linearGradient id="grad2_1" x1="0%" y1="100%" x2="66.7%" y2="0%"><stop offset="20%" stop-color="#ff6ba7" stop-opacity="1"></stop><stop offset="80%" stop-color="#ff008c" stop-opacity="1"></stop></linearGradient></defs><defs><linearGradient id="grad2_2" x1="0%" y1="100%" x2="66.7%" y2="0%"><stop offset="20%" stop-color="#ff6ba7" stop-opacity="1"></stop><stop offset="80%" stop-color="#ffa1c4" stop-opacity="1"></stop></linearGradient></defs><defs><linearGradient id="grad2_3" x1="0%" y1="100%" x2="66.7%" y2="0%"><stop offset="20%" stop-color="#ffd1e1" stop-opacity="1"></stop><stop offset="80%" stop-color="#ffa1c4" stop-opacity="1"></stop></linearGradient></defs><defs><linearGradient id="grad2_4" x1="0%" y1="100%" x2="66.7%" y2="0%"><stop offset="20%" stop-color="#ffd1e1" stop-opacity="1"></stop><stop offset="80%" stop-color="#ffffff" stop-opacity="1"></stop></linearGradient></defs><g transform="translate(900, 600)"><path d="M-486.7 0C-452.5 -72.2 -418.2 -144.4 -381.9 -220.5C-345.6 -296.6 -307.4 -376.5 -243.4 -421.5C-179.4 -466.6 -89.7 -476.7 0 -486.7L0 0Z" fill="#ffe8f0"></path><path d="M-389.4 0C-362 -57.8 -334.6 -115.5 -305.5 -176.4C-276.5 -237.3 -245.9 -301.2 -194.7 -337.2C-143.5 -373.2 -71.8 -381.3 0 -389.4L0 0Z" fill="#ffb9d2"></path><path d="M-292 0C-271.5 -43.3 -250.9 -86.7 -229.2 -132.3C-207.4 -177.9 -184.4 -225.9 -146 -252.9C-107.6 -279.9 -53.8 -286 0 -292L0 0Z" fill="#ff87b5"></path><path d="M-194.7 0C-181 -28.9 -167.3 -57.8 -152.8 -88.2C-138.3 -118.6 -122.9 -150.6 -97.3 -168.6C-71.8 -186.6 -35.9 -190.7 0 -194.7L0 0Z" fill="#ff499a"></path><path d="M-97.3 0C-90.5 -14.4 -83.6 -28.9 -76.4 -44.1C-69.1 -59.3 -61.5 -75.3 -48.7 -84.3C-35.9 -93.3 -17.9 -95.3 0 -97.3L0 0Z" fill="#ff008c"></path></g><g transform="translate(0, 0)"><path d="M486.7 0C453.4 72.7 420 145.5 383.6 221.5C347.3 297.5 307.8 376.8 243.4 421.5C178.9 466.3 89.5 476.5 0 486.7L0 0Z" fill="#ffe8f0"></path><path d="M389.4 0C362.7 58.2 336 116.4 306.9 177.2C277.8 238 246.3 301.4 194.7 337.2C143.1 373 71.6 381.2 0 389.4L0 0Z" fill="#ffb9d2"></path><path d="M292 0C272 43.6 252 87.3 230.2 132.9C208.4 178.5 184.7 226.1 146 252.9C107.4 279.8 53.7 285.9 0 292L0 0Z" fill="#ff87b5"></path><path d="M194.7 0C181.4 29.1 168 58.2 153.5 88.6C138.9 119 123.1 150.7 97.3 168.6C71.6 186.5 35.8 190.6 0 194.7L0 0Z" fill="#ff499a"></path><path d="M97.3 0C90.7 14.5 84 29.1 76.7 44.3C69.5 59.5 61.6 75.4 48.7 84.3C35.8 93.3 17.9 95.3 0 97.3L0 0Z" fill="#ff008c"></path></g></svg>