<!--?xml version="1.0" standalone="no"?-->
              <svg id="sw-js-blob-svg" viewBox="0 0 100 100" xmlns="http://www.w3.org/2000/svg" version="1.1">
                    <defs> 
                        <linearGradient id="sw-gradient" x1="0" x2="1" y1="1" y2="0">
                            <stop id="stop1" stop-color="rgba(255, 0, 140, 1)" offset="0%"></stop>
                            <stop id="stop2" stop-color="rgba(255, 0, 140, 0.11)" offset="100%"></stop>
                        </linearGradient>
                    </defs>
                <path fill="rgba(255, 0, 140, 1)" d="M20.3,-28.5C27.6,-26.9,35.8,-23.5,38.7,-17.6C41.6,-11.6,39.2,-3.2,38,5.5C36.7,14.1,36.6,22.9,32.7,29.5C28.8,36.1,21,40.6,12.6,43.2C4.2,45.7,-4.8,46.4,-11.2,42.6C-17.6,38.7,-21.3,30.2,-26.5,23.4C-31.6,16.6,-38.2,11.5,-40.7,4.8C-43.3,-1.8,-41.8,-10.1,-38,-16.9C-34.1,-23.6,-28,-28.8,-21.3,-30.6C-14.6,-32.5,-7.3,-31,-0.4,-30.4C6.5,-29.8,13,-30,20.3,-28.5Z" width="100%" height="100%" transform="translate(50 50)" stroke-width="0" style="transition: all 0.3s ease 0s;" stroke="url(#sw-gradient)"></path>
              </svg>