<!--?xml version="1.0" standalone="no"?-->
              <svg id="sw-js-blob-svg" viewBox="0 0 100 100" xmlns="http://www.w3.org/2000/svg" version="1.1">
                    <defs> 
                        <linearGradient id="sw-gradient" x1="0" x2="1" y1="1" y2="0">
                            <stop id="stop1" stop-color="rgba(255, 0, 140, 1)" offset="0%"></stop>
                            <stop id="stop2" stop-color="rgba(255, 0, 140, 0.11)" offset="100%"></stop>
                        </linearGradient>
                    </defs>
                <path fill="rgba(255, 0, 140, 1)" d="M22,-33.7C27.1,-30.9,28.9,-22.5,29.7,-15.2C30.5,-7.9,30.3,-1.8,31.3,5.9C32.4,13.6,34.8,22.9,31.4,27.7C28,32.6,18.9,33,10.9,33.8C2.9,34.7,-4,36,-11.1,35.2C-18.2,34.4,-25.5,31.4,-31.1,26.2C-36.8,21.1,-40.8,13.7,-40.9,6.5C-41.1,-0.8,-37.3,-8.1,-32.5,-13.3C-27.7,-18.6,-21.9,-21.8,-16.3,-24.4C-10.7,-27,-5.4,-29,1.5,-31.4C8.4,-33.8,16.9,-36.6,22,-33.7Z" width="100%" height="100%" transform="translate(50 50)" stroke-width="0" style="transition: all 0.3s ease 0s;" stroke="url(#sw-gradient)"></path>
              </svg>