<svg id="visual" viewBox="0 0 900 600" width="900" height="600" xmlns="http://www.w3.org/2000/svg" xmlns:xlink="http://www.w3.org/1999/xlink" version="1.1"><path d="M684 600L685.8 585.7C687.7 571.3 691.3 542.7 676.8 514.2C662.3 485.7 629.7 457.3 608.7 428.8C587.7 400.3 578.3 371.7 592.2 343C606 314.3 643 285.7 646 257C649 228.3 618 199.7 611.8 171.2C605.7 142.7 624.3 114.3 618.5 85.8C612.7 57.3 582.3 28.7 567.2 14.3L552 0L900 0L900 14.3C900 28.7 900 57.3 900 85.8C900 114.3 900 142.7 900 171.2C900 199.7 900 228.3 900 257C900 285.7 900 314.3 900 343C900 371.7 900 400.3 900 428.8C900 457.3 900 485.7 900 514.2C900 542.7 900 571.3 900 585.7L900 600Z" fill="#ff008c" stroke-linecap="round" stroke-linejoin="miter"></path></svg>